<svg width="17" height="15" viewBox="0 0 17 15" fill="none" xmlns="http://www.w3.org/2000/svg">
<path d="M16 1.35H12.5V0.15C12.5 0.0675 12.425 0 12.3333 0H11.1667C11.075 0 11 0.0675 11 0.15V1.35H5.66667V0.15C5.66667 0.0675 5.59167 0 5.5 0H4.33333C4.24167 0 4.16667 0.0675 4.16667 0.15V1.35H0.666667C0.297917 1.35 0 1.61813 0 1.95V14.4C0 14.7319 0.297917 15 0.666667 15H16C16.3687 15 16.6667 14.7319 16.6667 14.4V1.95C16.6667 1.61813 16.3687 1.35 16 1.35ZM15.1667 13.65H1.5V6.525H15.1667V13.65ZM1.5 5.25V2.7H4.16667V3.6C4.16667 3.6825 4.24167 3.75 4.33333 3.75H5.5C5.59167 3.75 5.66667 3.6825 5.66667 3.6V2.7H11V3.6C11 3.6825 11.075 3.75 11.1667 3.75H12.3333C12.425 3.75 12.5 3.6825 12.5 3.6V2.7H15.1667V5.25H1.5Z" fill="#757575"/>
</svg>
